<?xml version="1.0" encoding="UTF-8" standalone="no"?>
<!-- Created with Inkscape (http://www.inkscape.org/) -->

<svg
   xmlns:dc="http://purl.org/dc/elements/1.1/"
   xmlns:cc="http://creativecommons.org/ns#"
   xmlns:rdf="http://www.w3.org/1999/02/22-rdf-syntax-ns#"
   xmlns:svg="http://www.w3.org/2000/svg"
   xmlns="http://www.w3.org/2000/svg"
   xmlns:sodipodi="http://sodipodi.sourceforge.net/DTD/sodipodi-0.dtd"
   xmlns:inkscape="http://www.inkscape.org/namespaces/inkscape"
   width="210mm"
   height="297mm"
   viewBox="0 0 744.09448819 1052.3622047"
   id="svg2"
   version="1.1"
   inkscape:version="0.91 r13725"
   sodipodi:docname="design.svg"
   inkscape:export-filename="design.png"
   inkscape:export-xdpi="90"
   inkscape:export-ydpi="90">
  <defs
     id="defs4" />
  <sodipodi:namedview
     id="base"
     pagecolor="#ffffff"
     bordercolor="#666666"
     borderopacity="1.0"
     inkscape:pageopacity="0.0"
     inkscape:pageshadow="2"
     inkscape:zoom="0.24748737"
     inkscape:cx="-808.5583"
     inkscape:cy="883.522"
     inkscape:document-units="px"
     inkscape:current-layer="g4162"
     showgrid="false"
     showborder="false"
     inkscape:window-width="1680"
     inkscape:window-height="1001"
     inkscape:window-x="-4"
     inkscape:window-y="26"
     inkscape:window-maximized="1"
     showguides="false" />
  <metadata
     id="metadata7">
    <rdf:RDF>
      <cc:Work
         rdf:about="">
        <dc:format>image/svg+xml</dc:format>
        <dc:type
           rdf:resource="http://purl.org/dc/dcmitype/StillImage" />
        <dc:title />
      </cc:Work>
    </rdf:RDF>
  </metadata>
  <g
     inkscape:label="Layer 1"
     inkscape:groupmode="layer"
     id="layer1">
    <g
       id="g4162"
       transform="translate(-17.457429,31.428589)">
      <path
         style="fill:none;fill-opacity:1;stroke:#333333;stroke-width:44.91063309;stroke-linecap:round;stroke-linejoin:round;stroke-miterlimit:4;stroke-dasharray:none;stroke-opacity:1"
         d="M -1419.0273 -415.35156 C -1420.1262 -415.35156 -1421.2244 -414.92987 -1422.0664 -414.08789 L -1672.666 -163.48828 C -1674.35 -161.80433 -1674.35 -159.09215 -1672.666 -157.4082 L -1093.4883 421.76953 L -1469.5078 797.78906 L -1356.3691 846.27539 L -1307.8828 959.41406 L -931.86328 583.39453 L -350.73047 1164.5273 C -349.04652 1166.2113 -346.33434 1166.2113 -344.65039 1164.5273 L -94.050781 913.92773 C -92.366832 912.24379 -92.366832 909.53161 -94.050781 907.84766 L -675.18359 326.71484 L -187.62305 -160.8457 L -236.11133 -273.98242 L -349.24805 -322.4707 L -836.80859 165.08984 L -1415.9863 -414.08789 C -1416.8283 -414.92987 -1417.9285 -415.35156 -1419.0273 -415.35156 z "
         transform="translate(17.457429,-31.428589)"
         id="rect4141" />
      <path
         style="fill:#333333;fill-rule:evenodd;stroke:none;stroke-width:1px;stroke-linecap:butt;stroke-linejoin:miter;stroke-opacity:1"
         d="m -1635.9773,-138.01318 118.3401,-118.34005 c 0,0 9.3147,-9.1138 18.0253,-0.71984 8.7105,8.39395 -0.7198,18.02536 -0.7198,18.02536 l -118.3401,118.34005 z"
         id="path4158"
         inkscape:connector-curvature="0"
         sodipodi:nodetypes="cczccc" />
      <path
         sodipodi:nodetypes="cczccc"
         inkscape:connector-curvature="0"
         id="path4160"
         d="m -1428.896,69.068063 118.34,-118.340054 c 0,0 9.3148,-9.113793 18.0253,-0.719842 8.7106,8.393952 -0.7198,18.025361 -0.7198,18.025361 l -118.34,118.340054 z"
         style="fill:#333333;fill-rule:evenodd;stroke:none;stroke-width:1px;stroke-linecap:butt;stroke-linejoin:miter;stroke-opacity:1" />
      <path
         style="fill:#333333;fill-rule:evenodd;stroke:none;stroke-width:1px;stroke-linecap:butt;stroke-linejoin:miter;stroke-opacity:1"
         d="m -1221.8148,276.1493 118.3401,-118.34005 c 0,0 9.3147,-9.11379 18.0253,-0.71984 8.7105,8.39395 -0.7198,18.02536 -0.7198,18.02536 l -118.3401,118.34005 z"
         id="path4162"
         inkscape:connector-curvature="0"
         sodipodi:nodetypes="cczccc" />
      <path
         style="fill:#333333;fill-rule:evenodd;stroke:none;stroke-width:1px;stroke-linecap:butt;stroke-linejoin:miter;stroke-opacity:1"
         d="m -807.6522,690.31189 118.34005,-118.34005 c 0,0 9.31476,-9.1138 18.02529,-0.71984 8.71054,8.39395 -0.71977,18.02536 -0.71977,18.02536 l -118.34005,118.34005 z"
         id="path4166"
         inkscape:connector-curvature="0"
         sodipodi:nodetypes="cczccc" />
      <path
         sodipodi:nodetypes="cczccc"
         inkscape:connector-curvature="0"
         id="path4170"
         d="m -600.57088,897.39321 118.34005,-118.34005 c 0,0 9.31476,-9.1138 18.02529,-0.71985 8.71054,8.39396 -0.71977,18.02537 -0.71977,18.02537 l -118.34005,118.34005 z"
         style="fill:#333333;fill-rule:evenodd;stroke:none;stroke-width:1px;stroke-linecap:butt;stroke-linejoin:miter;stroke-opacity:1" />
      <path
         style="fill:#333333;fill-rule:evenodd;stroke:none;stroke-width:1px;stroke-linecap:butt;stroke-linejoin:miter;stroke-opacity:1"
         d="m -393.48968,1104.4744 118.34006,-118.34004 c 0,0 9.31475,-9.11379 18.02529,-0.71984 8.71053,8.39395 -0.71978,18.02538 -0.71978,18.02538 l -118.34005,118.34 z"
         id="path4172"
         inkscape:connector-curvature="0"
         sodipodi:nodetypes="cczccc" />
      <path
         sodipodi:nodetypes="cczccc"
         inkscape:connector-curvature="0"
         id="path4174"
         d="m -1566.9502,-68.986121 61.7715,-61.771509 c 0,0 9.3148,-9.1138 18.0253,-0.71984 8.7105,8.39395 -0.7198,18.02536 -0.7198,18.02536 l -61.7715,61.771508 z"
         style="fill:#333333;fill-rule:evenodd;stroke:none;stroke-width:1px;stroke-linecap:butt;stroke-linejoin:miter;stroke-opacity:1" />
      <path
         style="fill:#333333;fill-rule:evenodd;stroke:none;stroke-width:1px;stroke-linecap:butt;stroke-linejoin:miter;stroke-opacity:1"
         d="m -1497.9231,0.04100649 61.7715,-61.77151149 c 0,0 9.3148,-9.113794 18.0253,-0.719842 8.7106,8.393951 -0.7198,18.025361 -0.7198,18.025361 l -61.7715,61.771512 z"
         id="path4176"
         inkscape:connector-curvature="0"
         sodipodi:nodetypes="cczccc" />
      <path
         sodipodi:nodetypes="cczccc"
         inkscape:connector-curvature="0"
         id="path4178"
         d="m -1359.869,138.09512 61.7715,-61.771512 c 0,0 9.3148,-9.113793 18.0253,-0.719842 8.7106,8.393952 -0.7197,18.025361 -0.7197,18.025361 l -61.7716,61.771513 z"
         style="fill:#333333;fill-rule:evenodd;stroke:none;stroke-width:1px;stroke-linecap:butt;stroke-linejoin:miter;stroke-opacity:1" />
      <path
         style="fill:#333333;fill-rule:evenodd;stroke:none;stroke-width:1px;stroke-linecap:butt;stroke-linejoin:miter;stroke-opacity:1"
         d="m -1290.8418,207.12225 61.7715,-61.77151 c 0,0 9.3147,-9.1138 18.0253,-0.71985 8.7105,8.39396 -0.7198,18.02536 -0.7198,18.02536 l -61.7715,61.77152 z"
         id="path4182"
         inkscape:connector-curvature="0"
         sodipodi:nodetypes="cczccc" />
      <path
         sodipodi:nodetypes="cczccc"
         inkscape:connector-curvature="0"
         id="path4184"
         d="m -1152.7877,345.17643 61.7716,-61.77151 c 0,0 9.3147,-9.11379 18.0252,-0.71984 8.7106,8.39395 -0.7197,18.02536 -0.7197,18.02536 l -61.7715,61.77151 z"
         style="fill:#333333;fill-rule:evenodd;stroke:none;stroke-width:1px;stroke-linecap:butt;stroke-linejoin:miter;stroke-opacity:1" />
      <path
         sodipodi:nodetypes="cczccc"
         inkscape:connector-curvature="0"
         id="path4188"
         d="m -945.70636,552.25773 61.77151,-61.77151 c 0,0 9.31475,-9.1138 18.02529,-0.71984 8.71054,8.39395 -0.71977,18.02536 -0.71977,18.02536 l -61.77151,61.77151 z"
         style="fill:#333333;fill-rule:evenodd;stroke:none;stroke-width:1px;stroke-linecap:butt;stroke-linejoin:miter;stroke-opacity:1" />
      <path
         style="fill:#333333;fill-rule:evenodd;stroke:none;stroke-width:1px;stroke-linecap:butt;stroke-linejoin:miter;stroke-opacity:1"
         d="m -876.67924,621.28486 61.77152,-61.77152 c 0,0 9.31475,-9.11379 18.02529,-0.71984 8.71053,8.39395 -0.71977,18.02536 -0.71977,18.02536 l -61.77152,61.77152 z"
         id="path4190"
         inkscape:connector-curvature="0"
         sodipodi:nodetypes="cczccc" />
      <path
         sodipodi:nodetypes="cczccc"
         inkscape:connector-curvature="0"
         id="path4192"
         d="m -738.62509,759.339 61.77151,-61.77151 c 0,0 9.31475,-9.1138 18.02529,-0.71985 8.71054,8.39396 -0.71977,18.02537 -0.71977,18.02537 l -61.77151,61.77151 z"
         style="fill:#333333;fill-rule:evenodd;stroke:none;stroke-width:1px;stroke-linecap:butt;stroke-linejoin:miter;stroke-opacity:1" />
      <path
         style="fill:#333333;fill-rule:evenodd;stroke:none;stroke-width:1px;stroke-linecap:butt;stroke-linejoin:miter;stroke-opacity:1"
         d="m -669.59795,828.36614 61.77151,-61.77151 c 0,0 9.31475,-9.11379 18.02529,-0.71984 8.71054,8.39395 -0.71977,18.02536 -0.71977,18.02536 l -61.77151,61.77151 z"
         id="path4194"
         inkscape:connector-curvature="0"
         sodipodi:nodetypes="cczccc" />
      <path
         sodipodi:nodetypes="cczccc"
         inkscape:connector-curvature="0"
         id="path4196"
         d="m -531.54382,966.42027 61.77151,-61.77151 c 0,0 9.31476,-9.11379 18.02529,-0.71984 8.71054,8.39395 -0.71977,18.02536 -0.71977,18.02536 l -61.77151,61.77151 z"
         style="fill:#333333;fill-rule:evenodd;stroke:none;stroke-width:1px;stroke-linecap:butt;stroke-linejoin:miter;stroke-opacity:1" />
      <path
         style="fill:#333333;fill-rule:evenodd;stroke:none;stroke-width:1px;stroke-linecap:butt;stroke-linejoin:miter;stroke-opacity:1"
         d="m -462.51675,1035.4473 61.77151,-61.77147 c 0,0 9.31476,-9.11379 18.02529,-0.71984 8.71054,8.39395 -0.71977,18.02536 -0.71977,18.02536 l -61.77151,61.77155 z"
         id="path4198"
         inkscape:connector-curvature="0"
         sodipodi:nodetypes="cczccc" />
      <path
         style="fill:none;fill-opacity:1;fill-rule:evenodd;stroke:#333333;stroke-width:44;stroke-linecap:round;stroke-linejoin:round;stroke-miterlimit:4;stroke-dasharray:none;stroke-opacity:1"
         d="m -1453.0704,767.13599 -98.454,261.38441 260.6807,-97.7502 -47.0588,-114.91226 z"
         id="path4149"
         inkscape:connector-curvature="0"
         sodipodi:nodetypes="ccccc" />
      <path
         sodipodi:nodetypes="ccccc"
         inkscape:connector-curvature="0"
         id="path4151"
         d="m -1514.0728,927.88325 -38.1618,101.34485 101.5052,-38.00143 -13.1438,-50.10333 z"
         style="fill:none;fill-rule:evenodd;stroke:#333333;stroke-width:44;stroke-linecap:round;stroke-linejoin:round;stroke-miterlimit:4;stroke-dasharray:none;stroke-opacity:1" />
      <path
         style="fill:none;fill-rule:evenodd;stroke:#333333;stroke-width:44.90999985;stroke-linecap:butt;stroke-linejoin:miter;stroke-miterlimit:4;stroke-dasharray:none;stroke-opacity:1"
         d="M -1077.6961,392.22036 -810.96048,125.36115"
         id="path4199"
         inkscape:connector-curvature="0" />
      <path
         inkscape:connector-curvature="0"
         id="path4201"
         d="M -915.34404,552.39368 -648.60842,285.53447"
         style="fill:none;fill-rule:evenodd;stroke:#333333;stroke-width:44.90999985;stroke-linecap:butt;stroke-linejoin:miter;stroke-miterlimit:4;stroke-dasharray:none;stroke-opacity:1" />
    </g>
  </g>
</svg>
