<?xml version="1.0" encoding="UTF-8" standalone="no"?>
<!-- Created with Inkscape (http://www.inkscape.org/) -->

<svg
   xmlns:dc="http://purl.org/dc/elements/1.1/"
   xmlns:cc="http://creativecommons.org/ns#"
   xmlns:rdf="http://www.w3.org/1999/02/22-rdf-syntax-ns#"
   xmlns:svg="http://www.w3.org/2000/svg"
   xmlns="http://www.w3.org/2000/svg"
   xmlns:sodipodi="http://sodipodi.sourceforge.net/DTD/sodipodi-0.dtd"
   xmlns:inkscape="http://www.inkscape.org/namespaces/inkscape"
   width="210mm"
   height="297mm"
   viewBox="0 0 744.09448819 1052.3622047"
   id="svg2"
   version="1.1"
   inkscape:version="0.91 r13725"
   sodipodi:docname="design.svg"
   inkscape:export-filename="design.png"
   inkscape:export-xdpi="90"
   inkscape:export-ydpi="90">
  <defs
     id="defs4" />
  <sodipodi:namedview
     id="base"
     pagecolor="#ffffff"
     bordercolor="#666666"
     borderopacity="1.0"
     inkscape:pageopacity="0.0"
     inkscape:pageshadow="2"
     inkscape:zoom="0.175"
     inkscape:cx="-1818.6017"
     inkscape:cy="715.58055"
     inkscape:document-units="px"
     inkscape:current-layer="g4162"
     showgrid="false"
     showborder="false"
     inkscape:window-width="1680"
     inkscape:window-height="1001"
     inkscape:window-x="-4"
     inkscape:window-y="26"
     inkscape:window-maximized="1" />
  <metadata
     id="metadata7">
    <rdf:RDF>
      <cc:Work
         rdf:about="">
        <dc:format>image/svg+xml</dc:format>
        <dc:type
           rdf:resource="http://purl.org/dc/dcmitype/StillImage" />
        <dc:title></dc:title>
      </cc:Work>
    </rdf:RDF>
  </metadata>
  <g
     inkscape:label="Layer 1"
     inkscape:groupmode="layer"
     id="layer1">
    <g
       id="g4162"
       transform="translate(-17.457429,31.428589)">
      <g
         id="g4204"
         transform="matrix(0.70710678,0.70710678,-0.70710678,0.70710678,-10.519774,712.97849)">
        <rect
           ry="4.2986703"
           y="162.29146"
           x="-1804.9493"
           height="362.9986"
           width="1878.0966"
           id="rect4141"
           style="fill:#6181b0;fill-opacity:1;stroke:#6181b0;stroke-width:44.91063309;stroke-linecap:round;stroke-linejoin:round;stroke-miterlimit:4;stroke-dasharray:none;stroke-opacity:1" />
        <path
           sodipodi:nodetypes="cczccc"
           inkscape:connector-curvature="0"
           id="path4158"
           d="m -1751.114,547.63004 0,-167.35811 c 0,0 0.1421,-13.03095 12.2368,-13.25481 12.0947,-0.22386 12.2369,13.25481 12.2369,13.25481 l 0,167.35811 z"
           style="fill:#333333;fill-rule:evenodd;stroke:none;stroke-width:1px;stroke-linecap:butt;stroke-linejoin:miter;stroke-opacity:1" />
        <path
           style="fill:#333333;fill-rule:evenodd;stroke:none;stroke-width:1px;stroke-linecap:butt;stroke-linejoin:miter;stroke-opacity:1"
           d="m -1458.2569,547.63004 0,-167.35811 c 0,0 0.1421,-13.03095 12.2368,-13.25481 12.0947,-0.22386 12.2369,13.25481 12.2369,13.25481 l 0,167.35811 z"
           id="path4160"
           inkscape:connector-curvature="0"
           sodipodi:nodetypes="cczccc" />
        <path
           sodipodi:nodetypes="cczccc"
           inkscape:connector-curvature="0"
           id="path4162"
           d="m -1165.3998,547.63004 0,-167.35811 c 0,0 0.1421,-13.03095 12.2368,-13.25481 12.0947,-0.22386 12.2369,13.25481 12.2369,13.25481 l 0,167.35811 z"
           style="fill:#333333;fill-rule:evenodd;stroke:none;stroke-width:1px;stroke-linecap:butt;stroke-linejoin:miter;stroke-opacity:1" />
        <path
           style="fill:#333333;fill-rule:evenodd;stroke:none;stroke-width:1px;stroke-linecap:butt;stroke-linejoin:miter;stroke-opacity:1"
           d="m -872.5426,547.63004 0,-167.35811 c 0,0 0.1421,-13.03095 12.2368,-13.25481 12.0947,-0.22386 12.2369,13.25481 12.2369,13.25481 l 0,167.35811 z"
           id="path4164"
           inkscape:connector-curvature="0"
           sodipodi:nodetypes="cczccc" />
        <path
           sodipodi:nodetypes="cczccc"
           inkscape:connector-curvature="0"
           id="path4166"
           d="m -579.68545,547.63004 0,-167.35811 c 0,0 0.1421,-13.03095 12.2368,-13.25481 12.0947,-0.22386 12.2369,13.25481 12.2369,13.25481 l 0,167.35811 z"
           style="fill:#333333;fill-rule:evenodd;stroke:none;stroke-width:1px;stroke-linecap:butt;stroke-linejoin:miter;stroke-opacity:1" />
        <path
           style="fill:#333333;fill-rule:evenodd;stroke:none;stroke-width:1px;stroke-linecap:butt;stroke-linejoin:miter;stroke-opacity:1"
           d="m -286.82824,547.63004 0,-167.35811 c 0,0 0.1421,-13.03095 12.2368,-13.25481 12.0947,-0.22386 12.2369,13.25481 12.2369,13.25481 l 0,167.35811 z"
           id="path4170"
           inkscape:connector-curvature="0"
           sodipodi:nodetypes="cczccc" />
        <path
           sodipodi:nodetypes="cczccc"
           inkscape:connector-curvature="0"
           id="path4172"
           d="m 6.0288068,547.63004 0,-167.35811 c 0,0 0.1421,-13.03095 12.2367992,-13.25481 12.0947,-0.22386 12.2369,13.25481 12.2369,13.25481 l 0,167.35811 z"
           style="fill:#333333;fill-rule:evenodd;stroke:none;stroke-width:1px;stroke-linecap:butt;stroke-linejoin:miter;stroke-opacity:1" />
        <path
           style="fill:#333333;fill-rule:evenodd;stroke:none;stroke-width:1px;stroke-linecap:butt;stroke-linejoin:miter;stroke-opacity:1"
           d="m -1653.495,547.63004 0,-87.35811 c 0,0 0.1421,-13.03095 12.2368,-13.25481 12.0947,-0.22386 12.2369,13.25481 12.2369,13.25481 l 0,87.35811 z"
           id="path4174"
           inkscape:connector-curvature="0"
           sodipodi:nodetypes="cczccc" />
        <path
           sodipodi:nodetypes="cczccc"
           inkscape:connector-curvature="0"
           id="path4176"
           d="m -1555.8759,547.63004 0,-87.35811 c 0,0 0.1421,-13.03095 12.2368,-13.25481 12.0947,-0.22386 12.2369,13.25481 12.2369,13.25481 l 0,87.35811 z"
           style="fill:#333333;fill-rule:evenodd;stroke:none;stroke-width:1px;stroke-linecap:butt;stroke-linejoin:miter;stroke-opacity:1" />
        <path
           style="fill:#333333;fill-rule:evenodd;stroke:none;stroke-width:1px;stroke-linecap:butt;stroke-linejoin:miter;stroke-opacity:1"
           d="m -1360.6379,547.63004 0,-87.35811 c 0,0 0.1421,-13.03095 12.2368,-13.25481 12.0947,-0.22386 12.2369,13.25481 12.2369,13.25481 l 0,87.35811 z"
           id="path4178"
           inkscape:connector-curvature="0"
           sodipodi:nodetypes="cczccc" />
        <path
           sodipodi:nodetypes="cczccc"
           inkscape:connector-curvature="0"
           id="path4182"
           d="m -1263.0188,547.63004 0,-87.35811 c 0,0 0.1421,-13.03095 12.2368,-13.25481 12.0947,-0.22386 12.2369,13.25481 12.2369,13.25481 l 0,87.35811 z"
           style="fill:#333333;fill-rule:evenodd;stroke:none;stroke-width:1px;stroke-linecap:butt;stroke-linejoin:miter;stroke-opacity:1" />
        <path
           style="fill:#333333;fill-rule:evenodd;stroke:none;stroke-width:1px;stroke-linecap:butt;stroke-linejoin:miter;stroke-opacity:1"
           d="m -1067.7807,547.63004 0,-87.35811 c 0,0 0.1421,-13.03095 12.2368,-13.25481 12.0947,-0.22386 12.2369,13.25481 12.2369,13.25481 l 0,87.35811 z"
           id="path4184"
           inkscape:connector-curvature="0"
           sodipodi:nodetypes="cczccc" />
        <path
           sodipodi:nodetypes="cczccc"
           inkscape:connector-curvature="0"
           id="path4186"
           d="m -970.16163,547.63004 0,-87.35811 c 0,0 0.1421,-13.03095 12.2368,-13.25481 12.0947,-0.22386 12.2369,13.25481 12.2369,13.25481 l 0,87.35811 z"
           style="fill:#333333;fill-rule:evenodd;stroke:none;stroke-width:1px;stroke-linecap:butt;stroke-linejoin:miter;stroke-opacity:1" />
        <path
           style="fill:#333333;fill-rule:evenodd;stroke:none;stroke-width:1px;stroke-linecap:butt;stroke-linejoin:miter;stroke-opacity:1"
           d="m -774.92352,547.63004 0,-87.35811 c 0,0 0.1421,-13.03095 12.2368,-13.25481 12.0947,-0.22386 12.2369,13.25481 12.2369,13.25481 l 0,87.35811 z"
           id="path4188"
           inkscape:connector-curvature="0"
           sodipodi:nodetypes="cczccc" />
        <path
           sodipodi:nodetypes="cczccc"
           inkscape:connector-curvature="0"
           id="path4190"
           d="m -677.30442,547.63004 0,-87.35811 c 0,0 0.1421,-13.03095 12.2368,-13.25481 12.0947,-0.22386 12.2369,13.25481 12.2369,13.25481 l 0,87.35811 z"
           style="fill:#333333;fill-rule:evenodd;stroke:none;stroke-width:1px;stroke-linecap:butt;stroke-linejoin:miter;stroke-opacity:1" />
        <path
           style="fill:#333333;fill-rule:evenodd;stroke:none;stroke-width:1px;stroke-linecap:butt;stroke-linejoin:miter;stroke-opacity:1"
           d="m -482.06638,547.63004 0,-87.35811 c 0,0 0.1421,-13.03095 12.2368,-13.25481 12.0947,-0.22386 12.2369,13.25481 12.2369,13.25481 l 0,87.35811 z"
           id="path4192"
           inkscape:connector-curvature="0"
           sodipodi:nodetypes="cczccc" />
        <path
           sodipodi:nodetypes="cczccc"
           inkscape:connector-curvature="0"
           id="path4194"
           d="m -384.44726,547.63004 0,-87.35811 c 0,0 0.1421,-13.03095 12.2368,-13.25481 12.0947,-0.22386 12.2369,13.25481 12.2369,13.25481 l 0,87.35811 z"
           style="fill:#333333;fill-rule:evenodd;stroke:none;stroke-width:1px;stroke-linecap:butt;stroke-linejoin:miter;stroke-opacity:1" />
        <path
           style="fill:#333333;fill-rule:evenodd;stroke:none;stroke-width:1px;stroke-linecap:butt;stroke-linejoin:miter;stroke-opacity:1"
           d="m -189.20923,547.63004 0,-87.35811 c 0,0 0.1421,-13.03095 12.2368,-13.25481 12.0947,-0.22386 12.2369,13.25481 12.2369,13.25481 l 0,87.35811 z"
           id="path4196"
           inkscape:connector-curvature="0"
           sodipodi:nodetypes="cczccc" />
        <path
           sodipodi:nodetypes="cczccc"
           inkscape:connector-curvature="0"
           id="path4198"
           d="m -91.590213,547.63004 0,-87.35811 c 0,0 0.1421,-13.03095 12.2368,-13.25481 12.094696,-0.22386 12.236896,13.25481 12.236896,13.25481 l 0,87.35811 z"
           style="fill:#333333;fill-rule:evenodd;stroke:none;stroke-width:1px;stroke-linecap:butt;stroke-linejoin:miter;stroke-opacity:1" />
      </g>
      <g
         id="g4153"
         transform="matrix(0.70710678,-0.70710678,0.70710678,0.70710678,-245.80001,-223.01664)">
        <path
           sodipodi:nodetypes="ccccc"
           inkscape:connector-curvature="0"
           id="path4149"
           d="m -1553.8127,-153.52542 -254.4442,115.209211 253.4489,115.20921 126.5511,-95.959385 z"
           style="fill:#f7eeb1;fill-opacity:1;fill-rule:evenodd;stroke:none;stroke-width:44;stroke-linecap:round;stroke-linejoin:round;stroke-miterlimit:4;stroke-dasharray:none;stroke-opacity:1" />
        <path
           sodipodi:nodetypes="ccccccc"
           inkscape:connector-curvature="0"
           id="path4147"
           d="M 31.743143,75.21933 77.457429,-39.066385 31.743143,-153.3521 l -1584.285743,0 45.7143,114.285715 -45.7143,114.285715 z"
           style="fill:#d1ae72;fill-opacity:1;fill-rule:evenodd;stroke:none;stroke-width:44;stroke-linecap:round;stroke-linejoin:round;stroke-miterlimit:4;stroke-dasharray:none;stroke-opacity:1" />
        <path
           style="fill:#c83737;fill-rule:evenodd;stroke:none;stroke-width:44;stroke-linecap:round;stroke-linejoin:round;stroke-miterlimit:4;stroke-dasharray:none;stroke-opacity:1"
           d="m -1710.6134,-82.995163 -98.6461,44.677132 98.6461,44.9039891 26.1343,-44.7225021 z"
           id="path4151"
           inkscape:connector-curvature="0"
           sodipodi:nodetypes="ccccc" />
      </g>
    </g>
  </g>
</svg>
