<svg width="605.867" height="605.867" viewBox="0 0 568 568" xmlns="http://www.w3.org/2000/svg"><g transform="translate(-38.859 -413.034)"><rect style="fill:#444d61;fill-opacity:1;stroke:none;stroke-width:68.61100006;stroke-linecap:butt;stroke-linejoin:round;stroke-miterlimit:4;stroke-dasharray:548.888,68.61100000000000421;stroke-dashoffset:96.05539703;stroke-opacity:1" width="568" height="568" x="38.859" y="413.034" ry="65.054"/><g style="font-weight:700;font-family:'Brass Mono';-inkscape-font-specification:'Brass Mono Bold';letter-spacing:0;word-spacing:0;stroke-width:1px" aria-label="#!"><path style="fill:#6aabc6" d="M267.483 597.721h1.054c7.38 0 13.53 2.636 18.45 7.907 5.272 4.92 7.908 11.07 7.908 18.45 0 1.407-2.46 16.694-7.38 45.863h51.134l8.434-50.08c1.055-6.325 4.042-11.597 8.962-15.814 4.92-4.217 10.543-6.326 16.869-6.326 7.38 0 13.53 2.636 18.45 7.907 5.272 4.92 7.908 11.07 7.908 18.45 0 1.407-2.46 16.694-7.38 45.863h13.705c7.03 0 13.004 2.636 17.924 7.908 5.271 5.271 7.907 11.597 7.907 18.977 0 7.029-2.636 13.18-7.907 18.45-4.92 4.92-10.895 7.38-17.924 7.38h-22.14l-6.853 39.01h15.815s13.53 2.636 18.45 7.908c5.272 4.92 7.907 11.07 7.907 18.45 0 7.029-2.635 13.179-7.907 18.45-4.92 5.272-18.45 7.908-18.45 7.908h-24.25l-8.434 50.08c-1.054 6.325-4.042 11.597-8.962 15.814-4.92 4.217-10.543 6.326-16.869 6.326-7.38 0-13.706-2.46-18.977-7.38-4.92-5.272-7.38-11.598-7.38-18.978 0-1.405 2.46-16.693 7.38-45.862h-51.134l-8.435 50.08c-1.054 6.325-4.041 11.597-8.961 15.814-4.92 4.217-10.543 6.326-16.87 6.326-7.38 0-13.705-2.46-18.977-7.38-4.92-5.272-7.38-11.598-7.38-18.978 0-1.405 2.46-16.693 7.38-45.862h-13.706c-7.029 0-13.179-2.636-18.45-7.908-4.92-5.271-7.38-11.421-7.38-18.45 0-7.38 2.46-13.53 7.38-18.45 5.271-5.272 11.421-7.908 18.45-7.908H218.985l6.853-39.01h-15.815s-13.706-2.46-18.978-7.38c-4.92-5.27-7.38-11.421-7.38-18.45 0-7.38 2.46-13.706 7.38-18.977 5.272-5.272 18.978-7.908 18.978-7.908h24.25l8.434-50.08c1.054-5.974 3.865-11.07 8.434-15.287 4.569-4.217 10.016-6.501 16.342-6.853zm62.731 124.936H279.08l-6.853 39.01h51.134z" transform="translate(-37.114)"/><path style="fill:#bb7582" d="M490.946 824.925c6.678-6.677 14.76-10.016 24.25-10.016 9.488 0 17.395 3.339 23.721 10.016 6.678 6.677 10.016 14.76 10.016 24.249 0 9.137-3.338 17.045-10.016 23.722-6.326 6.326-14.233 9.489-23.722 9.489-9.488 0-17.571-3.163-24.249-9.489-6.326-6.677-9.489-14.585-9.489-23.722 0-9.489 3.163-17.572 9.49-24.25zm23.722-289.935c7.38 0 13.53 2.635 18.45 7.907 5.272 4.92 7.908 11.07 7.908 18.45v210.335c0 7.029-2.636 13.18-7.907 18.45-4.92 4.92-11.07 7.38-18.45 7.38-7.03 0-13.18-2.46-18.451-7.38-4.92-5.27-7.38-11.421-7.38-18.45V561.347c0-7.38 2.46-13.53 7.38-18.45 4.92-5.272 11.07-7.907 18.45-7.907z" transform="translate(-37.114)"/></g></g></svg>
