<svg width="605.867" height="605.867" viewBox="0 0 568 568" xmlns="http://www.w3.org/2000/svg"><path d="M65.729 439.39h520.43l-18.384 446.892-241.83 69.296L82.7 900.424Z" style="fill:#eb9655;fill-opacity:1;fill-rule:evenodd;stroke:#eb9655;stroke-width:44.90000153;stroke-linecap:round;stroke-linejoin:round;stroke-miterlimit:4;stroke-dasharray:none;stroke-opacity:1" transform="translate(-41.944 -413.484)"/><path style="fill:#eba355;fill-opacity:1;fill-rule:evenodd;stroke:#eba355;stroke-width:38.14650345;stroke-linecap:round;stroke-linejoin:round;stroke-miterlimit:4;stroke-dasharray:none;stroke-opacity:1" d="M336.71 478.21h216.057l-15.62 379.674-200.437 60.288z" transform="translate(-41.944 -413.484)"/><path style="-inkscape-font-specification:'Brass Mono Bold';fill:#fff;stroke-width:.957605px" d="M380.587 758.572q0-30.862-14.672-46.546-14.167-16.19-47.558-16.19-20.237 0-32.38 5.06-11.636 4.553-25.802 16.19-7.083 5.564-15.684 5.564-10.625 0-18.214-7.589-7.083-7.589-7.083-17.707V557.21q0-10.624 7.083-17.707 7.589-7.59 18.214-7.59h132.554q10.119 0 17.202 7.59 7.589 7.083 7.589 17.707 0 10.119-7.59 17.708-7.082 7.083-17.2 7.083H269.786v71.842q22.767-8.6 48.57-8.6 52.617 0 82.467 30.356 30.356 29.85 30.356 82.973 0 53.629-30.862 83.479-29.85 28.838-80.95 28.838-22.766 0-40.474-4.048-17.202-3.541-25.802-7.589-8.095-4.047-22.767-12.648-12.649-7.083-12.649-21.755 0-10.119 7.083-17.708 7.59-7.589 18.214-7.589 7.589 0 21.755 9.107 11.636 7.589 20.743 10.119 9.107 2.023 33.898 2.023 33.897 0 47.557-16.695 13.66-16.696 13.66-45.534z" aria-label="5" transform="translate(-41.944 -413.484)"/></svg>
