<svg width="605.867" height="605.867" viewBox="0 0 568 568" xmlns="http://www.w3.org/2000/svg"><path style="fill:#4774a7;fill-opacity:1;stroke-width:16.875;stroke-linecap:round;stroke-linejoin:round" d="M322.147 668.06c-98.173-.744-156.317 31.273-156.317 60.876v75.196c0 40.443 22.793 128.827 157.03 127.532 136.55-1.318 157.029-89.756 157.029-127.532v-75.196c-.498-31.169-56.91-60.113-157.742-60.876zm.712 26.852c65.512 0 118.62 14.92 118.621 33.326 0 18.406-53.109 33.327-118.62 33.327-65.513 0-118.621-14.92-118.622-33.327.001-18.405 53.11-33.326 118.621-33.326z" transform="matrix(.8716 0 0 .8716 -29.006 -351.417)"/><path style="fill:none;fill-opacity:1;stroke:#4774a7;stroke-width:33.75;stroke-linecap:round;stroke-linejoin:round;stroke-dasharray:none;stroke-opacity:1" d="M476.878 748.031h21.992c27.374 0 36.104 20.29 36.648 43.493.477 20.355-11.15 43.492-36.648 43.492h-52.013" transform="matrix(.8716 0 0 .8716 -29.006 -351.417)"/><path style="fill:none;fill-opacity:1;stroke:#d8563c;stroke-width:33.75;stroke-linecap:round;stroke-linejoin:round;stroke-dasharray:none;stroke-opacity:1" d="M307.28 621.447s-41.122-34.72-39.339-58.018c2.95-38.523 67.054-31.896 78.891-84.914 4.15-18.587-8.361-42.964-8.361-42.964M360.026 644.584s25.271-21.347 25.6-36.094c.424-19.078-33.576-29.215-31.009-48.125 2.944-21.679 48.975-43.695 48.975-43.695" transform="matrix(.8716 0 0 .8716 -29.006 -351.417)"/></svg>
