<svg width="605.867" height="605.867" viewBox="0 0 568 568" xmlns="http://www.w3.org/2000/svg"><g transform="translate(-38.859 -413.034)"><rect style="fill:#fcce51;fill-opacity:1;stroke:none;stroke-width:68.61100006;stroke-linecap:butt;stroke-linejoin:round;stroke-miterlimit:4;stroke-dasharray:548.888,68.61100000000000421;stroke-dashoffset:96.05539703;stroke-opacity:1" width="568" height="568" x="38.859" y="413.034" ry="65.054"/><path style="-inkscape-font-specification:'Brass Mono Bold';fill:#3c3c3c;fill-opacity:1;stroke-width:1.13356px" d="M307.737 945.158c-23.2 0-42.933-7.734-59.2-23.2-16.266-15.733-24.4-36.4-24.4-62v-.4c0-5.6 1.868-10.266 5.6-14 4-4 8.667-6 14-6 5.6 0 10.4 2 14.4 6 4 3.734 6 8.4 6 14v.4c0 14.933 4.534 26.533 13.6 34.8 8 7.2 18 10.8 30 10.8 12.267 0 22.667-3.733 31.2-11.2 9.333-8.267 14-19.733 14-34.4V717.96h-62.8c-5.6 0-10.4-1.866-14.4-5.6-3.733-4-5.6-8.666-5.6-14 0-5.6 1.867-10.266 5.6-14 4-4 8.8-6 14.4-6h82.8c5.6 0 10.266 2 14 6 4 3.734 6 8.4 6 14v161.6c0 25.332-8.4 45.866-25.2 61.599-16.533 15.733-36.533 23.6-60 23.6zM498.52 747.159c27.466 0 47.733 4.933 60.8 14.8 5.332 4 8 9.333 8 16 0 5.333-2 10-6 14-3.734 3.733-8.4 5.6-14 5.6-4.534 0-8.667-1.467-12.4-4.4-7.734-4.267-19.867-6.4-36.4-6.4-15.467 0-26.534 1.866-33.2 5.6-2.667 1.333-4.4 2.666-5.2 4-.533 1.066-.8 3.466-.8 7.2v1.2c0 1.333 2.4 3.066 7.2 5.2 5.333 2.666 18 6.266 38 10.8 20.266 4.266 35.066 8.8 44.4 13.6 8.266 4.266 15.2 10.266 20.8 18 5.6 7.733 8.399 16.533 8.399 26.4 0 21.866-6.667 38.399-20 49.599-13.333 11.2-33.6 16.8-60.8 16.8-22.666 0-42.132-3.867-58.399-11.6-8.8-4.267-15.733-9.067-20.8-14.4-3.2-4-4.8-8.533-4.8-13.6 0-5.333 1.867-10 5.6-14 4-4 8.667-6 14-6 6.4 0 11.6 2.4 15.6 7.2.8 1.067 2.4 2.4 4.8 4 2.4 1.333 7.733 3.2 16 5.6 8.266 2.133 17.6 3.2 28 3.2 17.6 0 29.333-2.533 35.2-7.6 4-3.2 6-9.6 6-19.2 0-2.133-.4-3.6-1.2-4.4-.8-1.067-3.067-2.533-6.8-4.4-5.867-3.2-16.267-6.266-31.2-9.2-14.667-2.933-28.4-6.666-41.2-11.2-12.8-4.533-22.533-10.8-29.2-18.8-6.4-7.733-9.6-16.8-9.6-27.2 0-10.133 2.4-19.333 7.2-27.6 5.067-8.266 11.733-14.532 20-18.799 12.533-6.667 29.866-10 52-10z" aria-label="Js"/></g></svg>
