<svg xmlns="http://www.w3.org/2000/svg" width="605.867" height="605.867" viewBox="0 0 568 568"><path d="M248.556 503.565c0 13.2-10.7 23.9-23.9 23.9s-23.9-10.7-23.9-23.9 10.7-23.9 23.9-23.9 23.9 10.7 23.9 23.9zm-31.897-64.54c-30.826 0-55.642 24.817-55.642 55.643v58.908H123.32c-30.825 0-55.642 24.817-55.642 55.643V749.15c0 30.826 24.817 55.643 55.642 55.643h73.516l1.25-56.432c.83-37.504 25.821-57.566 59.71-58.119h116.507c36.325 0 59.142-22.317 59.142-58.643V494.668c0-30.826-24.817-55.643-55.642-55.643z" style="fill:#699bc9;fill-opacity:1;stroke:none;stroke-width:36.9659996;stroke-linecap:round;stroke-linejoin:round;stroke-miterlimit:4;stroke-dasharray:none;stroke-dashoffset:96.05539703;stroke-opacity:1" transform="translate(-41.859 -416.034)"/><path style="fill:#fcce51;fill-opacity:1;stroke:none;stroke-width:36.9659996;stroke-linecap:round;stroke-linejoin:round;stroke-miterlimit:4;stroke-dasharray:none;stroke-dashoffset:96.05539703;stroke-opacity:1" d="M403.162 896.503c0-13.2 10.7-23.9 23.9-23.9s23.9 10.7 23.9 23.9-10.7 23.9-23.9 23.9-23.9-10.7-23.9-23.9zm31.897 64.54c30.826 0 55.642-24.817 55.642-55.643v-58.908h37.696c30.825 0 55.642-24.817 55.642-55.643V650.918c0-30.826-24.817-55.643-55.642-55.643H454.88l-1.25 56.432c-.83 37.504-25.821 57.565-59.71 58.119H277.413c-36.326 0-59.142 22.317-59.142 58.642V905.4c0 30.826 24.816 55.643 55.642 55.643z" transform="translate(-41.859 -416.034)"/></svg>
