<svg xmlns="http://www.w3.org/2000/svg" width="497.011" height="351.03" viewBox="0 0 465.947 329.091"><path style="fill:#c60e1f;fill-opacity:1;fill-rule:evenodd;stroke:#000;stroke-width:0;stroke-linecap:butt;stroke-linejoin:miter;stroke-miterlimit:4;stroke-dasharray:none;stroke-opacity:1" d="M337.143 736.345 259.95 602.644l-77.192-133.702h308.77l-77.193 133.702z" transform="matrix(.66273 0 0 .8611 9.538 -304.974)"/><path style="fill:#c60e1f;fill-opacity:1;fill-rule:evenodd;stroke:#000;stroke-width:0;stroke-linecap:butt;stroke-linejoin:miter;stroke-miterlimit:4;stroke-dasharray:none;stroke-opacity:1" d="m467.72 600.37-42.554 98.832h130.667zM178.178 600.37l42.38 98.832H89.886z" transform="translate(-89.885 -600.37)"/><path style="fill:#780d1d;fill-opacity:1;fill-rule:evenodd;stroke:#000;stroke-width:0;stroke-linecap:butt;stroke-linejoin:miter;stroke-miterlimit:4;stroke-dasharray:none;stroke-opacity:1" d="m220.562 699.202-42.384-98.831h146.595z" transform="translate(-89.885 -600.37)"/><path transform="matrix(.66273 0 0 -.3696 9.538 272.15)" d="M337.143 736.345 259.95 602.644l-77.192-133.702h308.77l-77.193 133.702z" style="fill:#ed3d49;fill-opacity:1;fill-rule:evenodd;stroke:#000;stroke-width:0;stroke-linecap:butt;stroke-linejoin:miter;stroke-miterlimit:4;stroke-dasharray:none;stroke-opacity:1"/><path d="m425.166 699.202 42.554-98.831H321.09zM322.86 929.456 89.885 699.202H220.56zM322.86 929.456l232.973-230.254H425.166z" style="fill:#780d1d;fill-opacity:1;fill-rule:evenodd;stroke:#000;stroke-width:0;stroke-linecap:butt;stroke-linejoin:miter;stroke-miterlimit:4;stroke-dasharray:none;stroke-opacity:1" transform="translate(-89.885 -600.37)"/></svg>
