<?xml version="1.0" encoding="UTF-8" standalone="no"?>
<!-- Created with Inkscape (http://www.inkscape.org/) -->

<svg
   xmlns:dc="http://purl.org/dc/elements/1.1/"
   xmlns:cc="http://creativecommons.org/ns#"
   xmlns:rdf="http://www.w3.org/1999/02/22-rdf-syntax-ns#"
   xmlns:svg="http://www.w3.org/2000/svg"
   xmlns="http://www.w3.org/2000/svg"
   xmlns:sodipodi="http://sodipodi.sourceforge.net/DTD/sodipodi-0.dtd"
   xmlns:inkscape="http://www.inkscape.org/namespaces/inkscape"
   width="210mm"
   height="297mm"
   viewBox="0 0 744.09448819 1052.3622047"
   id="svg2"
   version="1.1"
   inkscape:version="0.91 r13725"
   sodipodi:docname="science.svg"
   inkscape:export-filename="science.png"
   inkscape:export-xdpi="90"
   inkscape:export-ydpi="90">
  <defs
     id="defs4" />
  <sodipodi:namedview
     id="base"
     pagecolor="#ffffff"
     bordercolor="#666666"
     borderopacity="1.0"
     inkscape:pageopacity="0.0"
     inkscape:pageshadow="2"
     inkscape:zoom="0.175"
     inkscape:cx="-3285.0419"
     inkscape:cy="700.30383"
     inkscape:document-units="px"
     inkscape:current-layer="layer1"
     showgrid="false"
     showborder="false"
     inkscape:window-width="1680"
     inkscape:window-height="1001"
     inkscape:window-x="-4"
     inkscape:window-y="26"
     inkscape:window-maximized="1" />
  <metadata
     id="metadata7">
    <rdf:RDF>
      <cc:Work
         rdf:about="">
        <dc:format>image/svg+xml</dc:format>
        <dc:type
           rdf:resource="http://purl.org/dc/dcmitype/StillImage" />
        <dc:title />
      </cc:Work>
    </rdf:RDF>
  </metadata>
  <g
     inkscape:label="Layer 1"
     inkscape:groupmode="layer"
     id="layer1">
    <path
       style="fill:none;fill-opacity:1;fill-rule:evenodd;stroke:#333333;stroke-width:45;stroke-linecap:round;stroke-linejoin:round;stroke-miterlimit:4;stroke-dasharray:none;stroke-opacity:1"
       d="m -1221.2475,733.45941 c 0,-179.7819 -224.784,-498.71424 -224.784,-498.71424 l 0,-95.47147 c -75.0132,35.36911 -141.8555,-51.380065 -200.2144,-107.332589 -58.3589,-55.952529 -71.2808,-23.9872389 -71.2808,-23.9872389 l 0,226.7912979 c 0,0 -205.4062,329.75846 -205.4062,498.71424 0,168.95578 701.6854,179.7819 701.6854,0 z"
       id="path4143"
       inkscape:connector-curvature="0"
       sodipodi:nodetypes="zcczcczz" />
    <path
       sodipodi:nodetypes="zcczcczcczz"
       inkscape:connector-curvature="0"
       id="path4141"
       d="m -1140.7573,766.18603 c 0,-235.93021 -226.6778,-563.45301 -226.6778,-563.45301 l 0,-479.5407 c 0,0 33.3549,2.90372 33.3549,-42.5399 0,-45.44362 -33.3549,-42.5399 -33.3549,-42.5399 l -433.1336,0 c 0,0 -35.4703,-2.93813 -34.0723,42.5399 1.398,45.47803 34.0723,42.5399 34.0723,42.5399 l 0,479.5407 c 0,0 -202.8544,343.31644 -202.8544,563.45301 0,220.13657 862.6658,235.93017 862.6658,0 z"
       style="fill:none;fill-rule:evenodd;stroke:#333333;stroke-width:45;stroke-linecap:round;stroke-linejoin:round;stroke-miterlimit:4;stroke-dasharray:none;stroke-opacity:1" />
    <circle
       style="fill:none;fill-opacity:1;stroke:#333333;stroke-width:45;stroke-linecap:round;stroke-linejoin:round;stroke-miterlimit:4;stroke-dasharray:none;stroke-opacity:1"
       id="circle4144"
       cx="-1692.0055"
       cy="-507.16293"
       r="31.286503" />
    <circle
       r="44.621338"
       cy="-676.97729"
       cx="-1506.1375"
       id="circle4146"
       style="fill:none;fill-opacity:1;stroke:#333333;stroke-width:45;stroke-linecap:round;stroke-linejoin:round;stroke-miterlimit:4;stroke-dasharray:none;stroke-opacity:1" />
    <circle
       style="fill:none;fill-opacity:1;stroke:#333333;stroke-width:45;stroke-linecap:round;stroke-linejoin:round;stroke-miterlimit:4;stroke-dasharray:none;stroke-opacity:1"
       id="circle4148"
       cx="-1603.1121"
       cy="-868.1535"
       r="22.718571" />
  </g>
</svg>
